<svg width="153" height="50" viewBox="0 0 153 50" fill="none" xmlns="http://www.w3.org/2000/svg">
<path d="M28.1641 29.3355V16.0052H32.4138V29.6988C32.4138 30.8127 32.9707 31.3696 34.0847 31.3696H40.0779V16.0052H44.3276V35.0745H33.9031C30.0771 35.0745 28.1641 33.1616 28.1641 29.3355ZM49.7696 35.0745V16.0052H71.4906C75.2924 16.0052 77.1932 17.9181 77.1932 21.7442V35.0745H72.9435V21.3809C72.9435 20.267 72.3865 19.7101 71.2726 19.7101H65.6062V35.0745H61.3565V19.7101H54.0193V35.0745H49.7696ZM117.087 29.3355V21.7442C117.087 17.9181 119 16.0052 122.826 16.0052H129.691L131.617 17.4217V19.7101H123.008C121.894 19.7101 121.337 20.267 121.337 21.3809V29.6988C121.337 30.8127 121.894 31.3696 123.008 31.3696H131.617V33.658L129.691 35.0745H122.826C119 35.0745 117.087 33.1616 117.087 29.3355ZM136.001 35.0745V8.1958H140.25V16.0052H146.461C150.263 16.0052 152.164 17.9181 152.164 21.7442V35.0745H147.914V21.3809C147.914 20.267 147.357 19.7101 146.243 19.7101H140.25V35.0745H136.001Z" fill="url(#paint0_linear_80_1810)"/>
<path d="M82.3643 29.3356V10.012H86.614V16.0052H98.4583V19.7101H86.614V29.6988C86.614 30.8128 87.1709 31.3697 88.2848 31.3697H93.479V33.6581L91.5539 35.0746H88.1033C84.2772 35.0746 82.3643 33.1616 82.3643 29.3356ZM102.236 35.0746C98.4099 35.0746 96.4968 33.1858 96.4968 29.4082C96.4968 25.6307 98.4099 23.742 102.236 23.742H107.83V21.381C107.83 20.2671 107.273 19.7101 106.159 19.7101H98.4583V17.4218V16.0052H106.377C110.178 16.0052 112.079 17.9182 112.079 21.7443V35.0746H102.236ZM100.747 29.6988C100.747 30.8128 101.304 31.3697 102.418 31.3697H107.83V27.0474H102.418C101.304 27.0474 100.747 27.5922 100.747 28.6818V29.6988Z" fill="#A6EB53"/>
<path d="M0.921333 19.7133C0.921333 19.7133 -0.427047 11.8446 0.944495 9.34555C2.31605 6.84649 16.7957 0.407396 16.7957 0.407396V28.0698L12.1634 25.4438V8.29188L5.55816 12.0643V22.1143L0.921333 19.7133Z" fill="#A6EB53"/>
<path d="M12.6947 49.5923L17.3082 46.7175L5.55828 40.21V32.9287L22.6565 42.5739L28.1641 40.21L0.921447 25.2021C0.921447 25.2021 -0.782669 40.4672 0.921447 42.9269C2.62559 45.3865 12.6947 49.5923 12.6947 49.5923Z" fill="white"/>
<defs>
<linearGradient id="paint0_linear_80_1810" x1="35.7257" y1="16.5716" x2="198.348" y2="16.1951" gradientUnits="userSpaceOnUse">
<stop stop-color="white"/>
<stop offset="1" stop-color="white" stop-opacity="0.32"/>
</linearGradient>
</defs>
</svg>
